<?xml version="1.0" encoding="UTF-8" standalone="no"?>
<!-- Created with Inkscape (http://www.inkscape.org/) -->

<svg
   xmlns:dc="http://purl.org/dc/elements/1.1/"
   xmlns:cc="http://creativecommons.org/ns#"
   xmlns:rdf="http://www.w3.org/1999/02/22-rdf-syntax-ns#"
   xmlns:svg="http://www.w3.org/2000/svg"
   xmlns="http://www.w3.org/2000/svg"
   xmlns:inkscape="http://www.inkscape.org/namespaces/inkscape"
   version="1.1"
   width="468.75"
   height="358.75"
   id="svg2"
   xml:space="preserve"><metadata
     id="metadata8"><rdf:RDF><cc:Work
         rdf:about=""><dc:format>image/svg+xml</dc:format><dc:type
           rdf:resource="http://purl.org/dc/dcmitype/StillImage" /></cc:Work></rdf:RDF></metadata><defs
     id="defs6" /><g
     transform="matrix(1.25,0,0,-1.25,0,358.75)"
     id="g10"><g
       transform="scale(0.1,0.1)"
       id="g12"><path
         d="m 2790.29,2160.14 c -74.5,201.23 -163.47,397.81 -246.99,594.66 -23.55,58.9 -23.55,58.9 -26.05,67.04 -0.87,-0.21 -1.74,-0.48 -2.62,-0.75 -306.22,-594.73 -306.22,-594.73 -311.67,-606.51 -5.45,2.22 -10.84,4.44 -16.22,6.67 3.77,8.14 7.54,16.21 11.37,24.3 103.04,200.41 206.08,400.83 309.12,601.25 0,7.47 -2.09,13.6 -1.75,20.66 3.63,-0.2 3.97,-0.6 7.33,-3.29 70.47,-93.28 127.81,-199.21 188.04,-299.96 71,-122.15 142.01,-244.3 213.08,-366.52 -36.08,8.08 -72.96,1.21 -103.78,-18.04 -17.3,-18.03 -17.3,-18.03 -19.86,-19.51 l 0,0 z m 245.78,-397.82 c -89.7,4.98 -158.22,74.44 -203.52,145.37 -0.39,1.28 -0.73,2.49 -1.07,3.7 38.36,-15 65.62,-35.67 108.96,-35.67 7.81,1.21 15.68,2.43 23.55,3.64 47.12,39.64 79.76,89.44 117.05,137.97 0.66,-0.07 1.41,-0.21 2.14,-0.34 40.52,-60.78 71.95,-167.58 18.04,-230.03 -20.25,-16.9 -38.43,-24.64 -65.15,-24.64 l 0,0 z m 272.37,-171.14 c -3.7,32.91 -7.4,65.82 -11.04,98.66 1.21,-0.07 2.42,-0.2 3.64,-0.34 24.36,-10.16 48.79,-20.39 73.22,-30.62 0,-2.55 -60.5,-66.09 -65.82,-67.7 l 0,0 z m -170,-72.41 c -29.21,16.61 -52.43,43.47 -83.19,55.92 -2.21,-0.14 -4.43,-0.27 -6.66,-0.4 -16.42,56.87 -33.52,114.47 -46.37,171.48 25.78,-1.82 25.78,-1.82 42,-1.82 38.63,4.04 62.39,18.3 84.93,49.67 5.46,10.9 10.3,21.87 13.67,33.11 0.73,0 1.48,0 2.21,0 -4.71,-102.23 -4.84,-204.8 -4.84,-307.63 -0.6,-0.07 -1.21,-0.2 -1.75,-0.33 l 0,0 z m -62.59,-51.97 c -1.75,7.88 -3.5,15.75 -5.18,23.56 7.6,-1.88 18.04,-18.37 5.18,-23.56 l 0,0 z m 3.7,-115.15 c -23.96,3.58 -23.15,12.93 -37.96,31.97 -5.71,10.17 -8.81,15.68 -8.81,26.52 9.76,24.36 68.44,32.17 68.44,67.7 -10.5,27.06 -43.81,48.06 -45.97,76.59 8.35,-0.73 62.66,-43.81 71.41,-50.41 5.86,-2.96 14.67,-5.92 25.71,-11.77 35,-25.45 51.89,-72.76 43.48,-116.3 -36.55,-17.09 -76.66,-24.3 -116.3,-24.3 l 0,0 z m 25.04,-131.36 c -1.21,37.68 -2.16,75.44 -5.18,112.59 28.26,3.37 55.11,9.08 83.17,16.55 25.24,-23.75 52.57,-45.83 76.87,-71.74 -0.14,-0.6 -0.27,-1.21 -0.34,-1.81 -51.55,-18.51 -103.04,-37.02 -154.52,-55.59 l 0,0 z M 1112.42,20.7266 c -10.97,2.4179 -14.85,0.8086 -25.61,0.8086 -28.54,9.5117 -16.68,65.3437 -15.58,85.1678 13.68,98.852 28.82,198.063 46.38,296.109 4.76,52.754 4.76,52.754 5.57,71.196 -2.86,11.777 -7.54,16.023 -17.13,20.781 3,12.293 6.08,24.578 9.15,36.801 17.26,121.465 39.37,247.598 89.63,360.133 10.17,18.437 20.56,40.539 41.27,49.246 19.46,17.414 43.39,41.269 53.92,-0.442 0,-28.097 -4.9,-55.976 -9.58,-84.07 -8.56,-43.461 -17.12,-86.922 -25.61,-130.387 -5.63,-42.359 -7.75,-104.261 -28.02,-144.066 -6.59,-42.438 -16.1,-84.07 -25.61,-126.438 -14.49,-81.804 -32.57,-163.457 -41.56,-246.425 -0.52,-14.711 -3.01,-42.661 15.58,-48.368 3.95,3.223 7.98,6.438 12,9.586 70.83,37.024 145.53,80.043 192.44,146.774 21.43,42.66 51.29,81.367 70.38,124.898 18.8,33.735 34.61,67.758 60.88,96 15.51,35.192 26.19,50.043 66.8,50.043 24.95,-6 26.78,-10.097 30.81,-34.019 2.92,-35.485 4.02,-69.95 17.56,-104.043 26.77,-30.731 64.75,19.679 78.43,41.629 12.81,15.949 12.81,15.949 40.03,54.363 48.88,84.805 98.11,168.945 156.79,247.234 16.11,17.125 46.98,48.805 73.24,35.711 19.77,-30.808 9.67,-68.711 1.91,-102.879 -12.81,-44.777 -25.61,-89.558 -38.34,-134.41 -6.44,-28.019 -6.44,-28.019 -6.8,-32.047 13.02,9.442 30.07,47.047 35.56,56.852 25.6,37.609 25.6,37.609 38.41,55.168 43.68,55.023 74.56,142.605 155.7,148.461 13.98,-17.414 25.02,-32.051 36.37,-52.391 12.8,-28.824 12.8,-28.824 19.16,-40.023 8.42,-8.414 14.05,-6.801 26.06,-6.801 17.48,19.828 30.28,42.289 47.55,61.969 1.17,0.586 2.42,1.101 3.66,1.613 0.07,-23.637 0.52,-46.539 2.78,-70.391 -24.07,-42.363 -56.26,-91.968 -97.17,-119.625 -56.63,-23.343 -60.95,30.731 -97.67,55.239 -8.13,1.902 -7.76,8.05 -12.01,13.609 -17.63,10.758 -32.41,-15 -41.99,-26.047 -64.03,-84.805 -64.03,-84.805 -67.25,-88.019 -29.26,-64.102 -72.65,-116.782 -108.72,-177.653 -14.06,-15.664 -47.41,-37.101 -68.41,-36 -10.47,41.262 9.36,88.969 17.19,128.043 9.81,33.656 18.88,63.879 23.19,98.414 7.76,7.75 9.66,29.192 9.22,40.02 -13.53,-1.828 -18.58,-7.824 -27.95,-17.196 -39.51,-66.949 -79.75,-132.066 -129.29,-191.699 -26.85,-27.293 -52.09,-50.121 -82.02,-73.972 -33.07,-7.243 -54.58,-5.637 -74.85,22.023 -6.37,13.535 -6.37,13.535 -12.37,31.168 -17.63,14.852 -21.43,49.609 -46.38,30.07 -18,-21.507 -33.3,-45.285 -49.25,-68.484 -20.19,-21.875 -27.21,-37.457 -27.21,-67.168 5.55,-33.367 -13.25,-43.973 -33.59,-65.633 -14.27,-19.601 -33,-33.797 -49.97,-50.773 -65.63,-51.2229 -68.85,-54.4417 -86.41,-67.2464 -2.64,-4.7539 -84.44,-47.9961 -92.85,-52.8281 -13.68,-5.4102 -24.08,-9.5859 -38.42,-9.5859 l 0,0 z M 131.453,629.711 C 40.3594,646.469 14.6758,767.41 6.99219,843.652 c 0,61.899 4.53511,121.68 12.73441,182.488 5.9218,33.65 11.5586,67.16 19.2382,100.02 8.125,24.22 13.7579,55.89 28.0274,76.82 20.2656,53.78 35.7028,102.88 70.3868,148.02 1.027,4.02 2.125,8.05 3.219,12 25.754,45.29 58.172,86.7 89.632,128.05 30.875,36.73 64.317,68.04 102.805,96.43 35.848,17.79 65.774,34.39 107.266,34.39 23.484,-5.26 32.047,-12 42.726,-34.83 12.215,-42.51 20.047,-83.11 17.629,-128.04 7.324,-20.78 2.641,-42.59 0.809,-64.75 -7.828,-61.39 -13.535,-122.56 -31.973,-182.49 -4.828,-24 -8.93,-47.85 -17.633,-71.19 -9.808,-13.54 -56.996,-60.14 -78,-46.83 -2.851,7.61 -2.851,7.61 -5.195,18 -2.855,72 4.391,141.51 15.145,212.05 4.246,18.94 8.488,37.89 12.808,56.85 12.653,33 28.969,62.34 21.289,97.6 -42.66,24.51 -65.707,9 -104.847,-12.36 C 266.742,1433.75 238.5,1400.54 207.77,1352.61 168.988,1282.3 145.355,1212.2 131.016,1132.52 119.527,1052.4 110.16,973.961 110.16,892.531 c 5.488,-37.246 20.781,-90.363 52.465,-114.804 2.633,-0.95 5.27,-1.903 7.977,-2.852 0,-0.512 0,-1.023 0,-1.609 11.261,-5.93 15.21,-9.149 36.804,-21.95 32.992,-12.004 62.117,-10.027 94.457,3.219 27,15.367 53.117,32.777 78.434,51.145 42.875,35.996 79.242,81.8 104.344,131.629 51.214,86.411 57.652,95.991 70.457,118.461 6.367,12.8 6.367,12.8 7.976,18.36 10.387,80.41 22.391,160.32 38.414,239.26 20.707,83.42 41.774,173.85 80.047,250.46 24.731,69.87 59.848,139.61 95.992,204.07 20.563,32.04 40.832,61.38 64.024,91.16 12.219,11.42 21.66,25.1 37.246,11.63 19.531,2.79 30.289,6.81 38.773,-16.38 1.754,-26.56 2.125,-48.37 -7.242,-73.61 -0.73,-15.58 -1.39,-30.58 -4.754,-46.46 -3.73,-9.59 -7.469,-19.17 -11.191,-28.76 -24,-128.48 -74.856,-240.8 -128.047,-360.13 -37.613,-69.29 -74.488,-139.68 -108.07,-211.24 -2.563,-49.68 -8.782,-100.38 -8.782,-150.431 1.465,-3.586 2.926,-7.172 4.461,-10.758 0.809,0 1.61,0 2.418,0 27.66,38.919 42.067,96.579 57.145,140.409 10.972,35.49 19.535,73.83 32.047,108 14.922,26.34 38.195,43.6 65.191,57.29 2.637,-0.8 5.344,-1.61 8.051,-2.42 24.437,-19.83 19.457,-79.97 51.945,-95.99 41.641,-8.27 78.735,47.12 91.61,79.53 26.339,44.78 52.758,90.95 83.268,132.87 25.24,54.88 58.39,110.64 96,157.61 11.63,8.34 52.02,33.07 52.02,4.02 -7.25,-23.19 -7.25,-23.19 -7.61,-27.21 10.75,3.8 30.51,24.95 40.02,33.22 24.07,15.94 64.24,29.41 88.83,4.82 2.78,-7.68 2.78,-7.68 9.15,-19.68 14.92,-44.34 7.46,-99.51 -7.17,-143.99 -9.52,-22.25 -22.84,-46.83 -27.22,-71.2 -12.01,-19.02 -22.91,-35.34 -30.37,-56.85 -47.86,-76.75 -93.14,-160.82 -186.87,-184.38 -10.61,0 -14.78,0.95 -22.39,7.16 -18.51,2.06 -24.15,5.35 -35.63,18.81 -17.493,34.68 -9.74,74.92 -5.93,112.02 -9.071,-0.8 -31.317,-41.12 -34.098,-45.66 -24.661,-44.7 -49.684,-77.55 -89.192,-110.77 -6.441,-4.76 -12.808,-9.59 -19.172,-14.41 -19.312,-5.86 -39.07,-6.37 -58.383,-6.37 -20.273,9.8 -20.933,28.1 -44.05,29.19 -10.539,-20.48 -21.075,-41.05 -31.606,-61.6 -14.054,-34.758 -26.785,-69.298 -43.246,-104.048 -25.609,-42.441 -25.609,-42.441 -33.582,-54.437 -30.883,-13.027 -43.683,-40.902 -72.805,-12.805 -20.05,32.336 -21.441,78.727 -23.632,115.239 -3.954,-0.954 -3.657,-2.418 -5.563,-5.93 -5.191,-1.461 -48.656,-72.656 -55.68,-84.508 -48.367,-68.41 -107.339,-129.582 -171.578,-183.578 -29.269,-20.191 -54.66,-33.875 -88.832,-43.242 -34.39,-6.074 -71.332,-14.34 -105.578,-14.34 l 0,0 z M 1561.3,756.07 c -9.87,5.707 -5.19,4.242 -5.19,13.168 -33.29,33.293 23.35,116.414 51.22,137.633 9.88,28.313 44.99,57.731 71.63,68.488 7.03,-0.66 8.86,-1.023 13.98,-7.609 -6.3,-42.512 -13.61,-88.172 -32.78,-127.246 -23.63,-34.02 -54.66,-78.582 -98.86,-84.434 l 0,0 z m -444.85,441.72 c -23.93,17.92 -1.4,94.89 5.92,117.21 3.22,7.46 6.44,14.93 9.66,22.39 8.42,6.08 14.49,12.07 20.78,19.98 12.95,24.51 46.1,106.38 86.85,85.31 15.8,-20.86 8.05,-60.14 4.39,-84.51 -19.1,-59.92 -67.16,-116.85 -113.19,-158.77 -5.34,-1.69 -9.22,-1.61 -14.41,-1.61 l 0,0 z m 172.02,31.24 c -6.3,3 -6.15,2.86 -8.42,8.34 19.83,52.46 57.36,97.09 73.61,149.63 23.34,23.34 38.48,62.56 51.21,92.05 4.61,25.02 18.15,45.15 28.83,67.97 7.03,17.63 13.25,38.78 23.2,54.43 0,11.93 -8.05,22.76 -8.05,34.39 3.22,5.64 3.22,5.64 28.83,39.22 31.68,49.76 63.51,75.3 122.04,44.49 6.37,-8.56 13.17,-5.34 21.23,-17.27 3.14,-6.44 3.14,-6.44 6.36,-11.19 32.7,-28.47 31.53,-91.61 26.41,-132.07 -7.17,-31.09 -14.05,-61.83 -19.97,-93.58 0,-5.64 -0.3,-6.73 2.78,-12.37 1.61,0 1.61,0 8.85,6.37 64.9,77.41 112.97,161.55 156.36,252.43 19.24,44.85 25.61,62.41 60.8,145.68 9.66,14.49 51.36,75.21 71.26,49.6 5.06,-12.8 3.08,-30.58 3.08,-44.85 -5.42,-42.8 -15.95,-85.53 -25.54,-128.04 -1.38,-14.86 -10.75,-144.36 10.11,-144.36 10.01,11.71 19.09,25.46 29.85,36.36 17.04,32.85 34.09,65.63 51.21,98.41 18.59,44.2 32.56,91.24 57.66,132.07 15.07,17.93 28.1,31.61 53.19,31.61 31.61,-10.54 15.44,-83.99 40.02,-111.22 22.03,-8.56 39.15,18.08 50.79,32.35 30.87,47.33 64.31,94.6 89.62,144.87 39,61.17 71.78,124.61 107.2,188.04 20.78,25.91 39.87,45.88 75.65,39.66 26.79,-11.34 25.4,-58.1 22.03,-82.9 0.73,-25.61 0.73,-25.61 0,-61.61 -11.35,-64.02 -26.2,-127.09 -32.05,-192.07 1.24,-1.09 1.24,-1.09 3.66,-1.09 22.32,26.7 36.81,59.12 58.75,85.16 13.54,29.64 47.2,105.22 47.2,62.42 -4.25,-23.49 11.56,-42.51 5.63,-64.03 -6.81,-14.41 -15.29,-28.16 -22.39,-42.43 -15.8,-37.46 -39.51,-65.34 -64.02,-97.61 -28.83,-34.24 -52.61,-65.27 -70.46,-106.39 -13.68,-11.7 -26.2,-26.26 -36.81,-40.83 -27.14,-20.33 -24,8.71 -34.38,22.4 -12.96,29.11 -17.86,55.6 -20.78,86.41 -6.37,22.24 -7.69,24.07 0.8,47.19 6.8,12 27.8,50.19 46.02,38.05 1.84,-3.59 3.74,-7.17 5.64,-10.83 0.88,0.29 1.75,0.59 2.7,0.8 10.47,35.12 6.44,76.54 6.44,112.02 -1.61,31.25 -1.61,31.25 -3.21,47.2 -3.67,3.66 -12.59,1.09 -16.03,-1.53 -40.61,-64.18 -83.04,-127.1 -121.61,-192.88 -11.99,-25.61 -27.43,-51 -44.78,-73.61 -31.61,-32.92 -88.38,-91.17 -136.02,-54.43 -9.36,15.07 -15.87,30.21 -22.46,45.66 -0.95,0.14 -1.83,0.29 -2.71,0.36 -29.55,-49.32 -51.8,-105.15 -79.68,-156.44 -20.12,-31.97 -50.04,-75.22 -89.92,-82.75 -26.63,0 -36,-1.97 -50.85,20.34 -13.83,36.66 -18.3,74.78 -21.96,112.82 -24.57,-20.11 -38.7,-59.18 -51.65,-87.21 -28.09,-41.12 -57.73,-82.53 -86.41,-123.22 -30.15,-23.99 -49.24,-59.41 -79.61,-83.63 -23.42,-10.53 -40.17,-19.39 -55.61,6 0,85.02 42.44,163.39 24,248.85 -10.09,21.14 -12.58,33.73 -35.56,24.44 -34.53,-30.37 -52.46,-84.73 -70.9,-124.46 -23.48,-40.17 -45.14,-81.73 -67.17,-123.22 -5.55,-7.61 -25.31,-35.19 -30.8,-37.61 -12.44,-16.02 -12.44,-16.02 -41.27,-56.04 -6.8,-7.32 -11.77,-16.32 -21.94,-16.32 l 0,0 z m -608.915,61.17 c 5.269,41.71 18.297,82.75 28.39,123.21 3.149,16.32 6.367,32.56 9.586,48.81 8.703,25.39 19.977,49.53 28.754,74.41 44.852,94.46 57.656,124.02 83.262,176.85 6.371,11.19 6.371,11.19 12.445,19.61 0.805,0.14 1.606,0.29 2.418,0.36 -1.832,-53.04 -18.953,-96.36 -36.441,-147.21 -3.219,-7.17 -6.438,-19.17 -9.66,-27.22 -14.121,-46.82 -31.461,-96.88 -55.973,-139.97 -49.172,-106.83 -51.145,-121.32 -62.781,-128.85 l 0,0 z M 2624.67,947.18 c -46.78,423.93 -46.78,423.93 -48.6,445.32 151.64,14.75 303.26,29.49 454.89,44.15 -1.14,-2.22 -1.14,-2.22 -10.3,-10.63 -8.95,-19.85 -8.07,-27.93 2.56,-47.51 20.12,-28.94 22.95,-40.58 58.55,-45.63 2.29,-17.64 4.58,-35.34 6.94,-53.04 1.47,-30.82 -0.14,-57.54 -5.19,-88.29 -11.78,-55.93 -23.55,-107.48 -24.56,-108.55 -144.76,-45.23 -289.53,-90.531 -434.29,-135.82 l 0,0 z m 411.4,-288.118 c 0.48,0 0.95,0 1.48,0 -0.53,0 -1,0 -1.48,0 l 0,0 z m 0,-2.957 c -0.27,0.266 -0.47,0.54 -0.67,0.739 0.48,0.136 0.94,0.269 1.41,0.34 -0.26,-0.34 -0.53,-0.676 -0.74,-1.079 l 0,0 z m -0.67,-2.894 c -0.13,0.605 -0.27,1.211 -0.4,1.816 0.74,-0.738 0.74,-0.738 0.4,-1.816 l 0,0 z m -108.96,-17.363 c -5.65,127.129 -11.3,254.191 -16.96,381.262 47.86,14.87 95.7,29.74 143.56,44.55 0.33,-0.34 0.67,-0.75 1.07,-1.15 -14.4,-63.463 -34.12,-126.858 -52.29,-189.85 -47.04,-152.371 -47.04,-152.371 -73.56,-234.07 -0.61,-0.203 -1.21,-0.473 -1.82,-0.742 l 0,0 z m -33.85,-406.227 c 48.66,140.594 95.16,281.652 141.67,422.445 0.74,-0.742 -4.44,-25.035 -10.3,-61.847 -4.71,-41.797 -5.52,-81.633 -3.7,-124.367 6.26,-63.942 21.47,-118.79 45.63,-178.825 -0.14,-0.605 -0.27,-1.211 -0.34,-1.816 -58.35,-17.231 -116.16,-34.457 -172.96,-55.59 l 0,0 z M 2491.48,8.07031 c -7.07,11.77349 -7.07,11.77349 -8.14,15.41019 99.6,60.3672 200.48,113.8745 306.21,163.0705 22.82,96.914 55.26,192.883 85,287.371 7.2,179.359 14.47,358.711 21.74,538.068 -2.22,-0.34 -4.44,-0.67 -6.67,-1.08 -93.74,-29.34 -187.42,-58.687 -281.1,-88.027 -17.7,161.927 -35.41,323.847 -53.04,485.777 167.45,16.49 334.89,32.91 502.33,49.33 -20.66,99.88 -49.47,198.34 -77.33,295.85 -4.71,2.63 -19.44,8.48 -31.22,14.41 -52.3,32.23 -89.38,66.69 -124.04,116.63 -51.88,84.19 -90.18,208.29 0.41,280.77 25.77,12.19 37.35,14.75 65.48,14.75 22.82,-2.97 36.07,-5.86 41.93,-5.86 73.22,-29.41 126.25,-86.21 168.92,-152.03 11.78,-22.82 11.78,-22.82 23.56,-47.85 3.36,-9.09 5.86,-18.98 11.44,-27.6 151.36,-86.27 305.61,-169.6 454.08,-261.99 2.96,-2.97 2.96,-2.97 5.92,-4.05 -1.21,-4.44 -4.11,-7.4 -7.07,-11.03 -84.33,-73.63 -177.2,-139.32 -268.19,-203.92 7.68,-31.16 15.41,-62.33 23.15,-93.48 22.88,-71.88 78.94,-102.23 152.7,-90.12 61.52,17.43 106.81,57.81 158.3,94.22 28.86,15.35 53.16,24.9 86.07,27.6 0.34,-6.4 -5.04,-12.18 -8.47,-17.7 -62.33,-70.2 -134.68,-133.86 -202.38,-198.74 -5.86,-9.56 0.47,-12.92 8.48,-18.72 57.75,-26.99 118.11,-46.77 175.92,-76.51 9.9,-6.33 44.42,-22.48 22.08,-35.33 -23.09,-5.99 -46.03,-5.19 -69.19,-5.19 -115.41,8.62 -234.4,21.13 -344.44,55.93 -6.26,2.96 -14,8.48 -20.33,7.74 -9.82,-117.981 -46.97,-222.973 -91.25,-331.997 -58.89,-132.449 -58.89,-132.449 -73.57,-167.777 -6.46,-21 -10.42,-42.066 -14.73,-64.004 -3.24,-34.258 -0.27,-67.637 4.37,-102.363 11.98,-49.199 29.01,-93.617 51.22,-139.785 96.91,13.929 191.27,23.758 289.99,19.117 -0.4,-5.859 -0.8,-11.781 -1.14,-17.703 -14.34,-0.34 -14.34,-0.34 -78.34,0.406 -68.18,-3.098 -133.12,-9.156 -200.22,-18.777 0.34,-1.485 0.67,-2.961 1.08,-4.442 47.11,-83.863 47.11,-83.863 70.66,-128.007 9.77,-24.836 23.96,-52.094 -0.33,-73.2232 -81.03,17.4302 -151.43,112.3242 -185.48,180.6372 -66.08,-17.301 -129.89,-37.895 -193.22,-62.528 -18.44,-43.476 -36.48,-88.699 -64.81,-127.3318 -9.56,-9.625 -18.98,-18.3711 -32.71,-16.5547 -19.58,19.582 -5.18,77.8715 -0.74,101.8945 -2.69,-0.809 -5.38,-1.684 -8.08,-2.562 C 2713.84,130.555 2653.54,99.8008 2593.04,66.6211 2495.12,9.21094 2495.12,9.21094 2491.48,8.07031 l 0,0 z M 3467.97,313.656 c 0,-0.019 -0.01,-0.039 -0.04,-0.054 -0.02,-0.012 -0.06,-0.016 -0.11,-0.028 l -0.11,-0.019 c -0.07,-0.008 -0.23,-0.028 -0.46,-0.043 l 0.37,-0.164 0.13,-0.043 c 0.04,-0.02 0.09,-0.043 0.12,-0.059 0.03,-0.023 0.04,-0.047 0.04,-0.078 0,-0.027 -0.02,-0.047 -0.05,-0.059 -0.01,-0.007 -0.04,-0.015 -0.07,-0.019 l -0.08,-0.02 c -0.15,-0.027 -0.32,-0.054 -0.5,-0.074 l 0.12,-0.031 0.34,-0.113 c 0.04,-0.008 0.1,-0.02 0.18,-0.043 0.03,-0.016 0.05,-0.039 0.05,-0.067 -0.01,-0.027 -0.01,-0.039 -0.03,-0.054 -0.01,-0.012 -0.03,-0.012 -0.05,-0.012 -0.07,0.008 -0.16,0.027 -0.27,0.066 l -0.25,0.086 -0.2,0.055 c -0.1,0.023 -0.16,0.051 -0.19,0.07 -0.03,0.024 -0.03,0.047 -0.03,0.074 0,0.028 0.01,0.043 0.05,0.059 0.04,0.012 0.12,0.027 0.24,0.035 0.14,0.012 0.3,0.035 0.47,0.074 -0.16,0.075 -0.33,0.141 -0.51,0.203 l -0.09,0.028 c -0.04,0.012 -0.07,0.023 -0.09,0.039 -0.04,0.015 -0.06,0.047 -0.05,0.074 0.01,0.035 0.04,0.059 0.12,0.078 0.02,0.004 0.08,0.004 0.15,0.012 0.2,0.012 0.37,0.035 0.51,0.059 l 0.12,0.027 c 0.06,0.012 0.09,0.015 0.11,0.015 0.02,0 0.04,-0.003 0.05,-0.023 0,-0.016 0.01,-0.031 0.01,-0.051 z m 0.04,0.723 c 0,-0.008 -0.01,-0.024 -0.03,-0.043 -0.02,-0.016 -0.04,-0.035 -0.05,-0.039 0.02,-0.047 0.03,-0.086 0.04,-0.117 0.01,-0.032 0.01,-0.059 0.01,-0.078 0,-0.106 -0.04,-0.176 -0.1,-0.219 -0.06,-0.039 -0.14,-0.059 -0.25,-0.051 -0.11,0.008 -0.2,0.051 -0.26,0.129 -0.07,0.078 -0.1,0.168 -0.1,0.273 0,0.032 0.02,0.075 0.04,0.121 0.03,0.055 0.06,0.086 0.09,0.083 0.01,0 0.03,-0.008 0.03,-0.016 0.02,-0.008 0.05,-0.012 0.09,-0.02 0.03,0 0.08,-0.004 0.14,-0.007 0.05,-0.004 0.09,-0.012 0.13,0 0.02,0.003 0.06,0.015 0.12,0.035 0,0 0.02,0 0.03,0.011 l 0.01,0.004 c 0.02,-0.004 0.03,-0.015 0.04,-0.023 0.01,-0.012 0.02,-0.027 0.02,-0.043 z m -0.46,-0.102 c -0.03,0 -0.05,0 -0.07,0.004 -0.02,0 -0.04,0.008 -0.06,0.016 -0.01,-0.02 -0.02,-0.031 -0.03,-0.043 0,-0.008 0,-0.016 -0.01,-0.02 0,-0.07 0.02,-0.132 0.07,-0.183 0.05,-0.059 0.12,-0.082 0.19,-0.09 0.07,-0.004 0.13,0.008 0.16,0.027 0.04,0.02 0.06,0.063 0.06,0.11 0.01,0.043 0,0.074 -0.01,0.105 0,0.024 -0.02,0.043 -0.05,0.074 -0.11,-0.007 -0.2,-0.007 -0.25,0 z m -0.01,0.817 c 0.04,-0.008 0.07,-0.032 0.07,-0.074 0,-0.036 -0.03,-0.051 -0.07,-0.051 -0.01,0 -0.03,0.008 -0.05,0.008 l -0.06,0 c 0.01,-0.071 0.03,-0.125 0.05,-0.172 0.03,-0.039 0.07,-0.075 0.13,-0.106 l 0.35,-0.019 c 0.05,-0.008 0.07,-0.024 0.06,-0.071 0,-0.039 -0.02,-0.054 -0.07,-0.054 l -0.45,0.031 c -0.02,0 -0.04,0 -0.07,0.004 -0.03,0.008 -0.05,0.008 -0.06,0.008 -0.05,0.004 -0.07,0.023 -0.06,0.062 0,0.039 0.04,0.063 0.11,0.059 -0.08,0.086 -0.11,0.179 -0.1,0.281 0,0.039 0.02,0.062 0.04,0.078 0.03,0.016 0.07,0.024 0.12,0.016 0.03,0 0.04,0 0.06,0 z m -0.04,0.578 c 0,-0.012 0,-0.02 0,-0.031 -0.01,-0.012 -0.01,-0.024 -0.02,-0.036 0,-0.007 0.01,-0.035 0.02,-0.089 l 0.38,-0.012 0.03,-0.004 0.03,0 c 0.1,-0.004 0.14,-0.035 0.14,-0.078 0,-0.02 -0.01,-0.035 -0.02,-0.043 -0.01,-0.016 -0.03,-0.02 -0.04,-0.02 -0.02,0.004 -0.04,0.004 -0.07,0.012 -0.04,0 -0.06,0.008 -0.08,0.008 l -0.39,0.008 c 0,-0.028 -0.01,-0.078 -0.02,-0.141 0,-0.039 -0.03,-0.058 -0.07,-0.058 -0.01,0 -0.03,0.011 -0.04,0.023 -0.01,0.012 -0.02,0.027 -0.02,0.047 l 0.03,0.137 c -0.03,0 -0.06,0.003 -0.09,0.003 -0.04,0 -0.07,0.004 -0.09,0.004 -0.02,0 -0.03,0.008 -0.04,0.02 -0.02,0.016 -0.02,0.031 -0.02,0.043 0.01,0.039 0.04,0.062 0.11,0.066 0.01,0 0.03,0 0.06,-0.004 l 0.03,-0.004 0.04,0 c 0,0.055 0,0.082 0,0.09 0,0.047 0.01,0.078 0.01,0.09 0.01,0.031 0.03,0.035 0.06,0.035 0.02,-0.004 0.04,-0.008 0.05,-0.023 0.01,-0.012 0.02,-0.031 0.02,-0.043 z m -0.25,0.336 c 0,-0.024 -0.01,-0.035 -0.03,-0.055 -0.02,-0.012 -0.03,-0.019 -0.06,-0.019 -0.02,0.004 -0.04,0.011 -0.04,0.027 -0.02,0.019 -0.02,0.035 -0.02,0.062 0,0.016 0.01,0.032 0.02,0.043 0.02,0.02 0.04,0.028 0.06,0.02 0.02,0 0.03,-0.004 0.05,-0.027 0.02,-0.016 0.02,-0.028 0.02,-0.051 z m 0.53,-0.008 c 0.02,-0.004 0.07,-0.004 0.12,-0.004 0.05,-0.004 0.09,-0.004 0.11,-0.004 0.02,-0.008 0.04,-0.012 0.05,-0.019 0.01,-0.016 0.02,-0.032 0.01,-0.051 0,-0.02 0,-0.035 -0.02,-0.047 -0.01,-0.012 -0.03,-0.016 -0.05,-0.012 -0.02,0 -0.06,0.004 -0.11,0.004 -0.05,0 -0.1,0 -0.12,0.008 -0.04,0.004 -0.09,0.004 -0.15,0.016 -0.06,0.007 -0.11,0.011 -0.16,0.015 -0.01,0.004 -0.03,0.008 -0.04,0.024 -0.01,0.011 -0.02,0.023 -0.02,0.043 0,0.019 0.01,0.035 0.03,0.05 0.01,0.008 0.02,0.008 0.04,0.008 0.05,0 0.1,-0.008 0.16,-0.015 0.06,-0.008 0.11,-0.016 0.15,-0.016 z m 0.4,0.695 c -0.01,-0.039 -0.03,-0.05 -0.07,-0.058 l -0.15,-0.008 c -0.05,0 -0.1,0 -0.14,0 -0.01,0.004 -0.03,0.004 -0.06,0.016 -0.03,0 -0.05,0 -0.06,0 -0.1,0.003 -0.15,-0.008 -0.15,-0.043 0,-0.047 0.02,-0.094 0.08,-0.145 0.05,-0.043 0.11,-0.082 0.19,-0.105 0.02,-0.008 0.04,-0.008 0.07,-0.016 0.02,-0.004 0.04,-0.008 0.06,-0.008 0.01,0 0.03,-0.004 0.05,0 0.03,0.004 0.05,0 0.06,0 0.02,0 0.03,-0.004 0.05,-0.016 0.01,-0.015 0.02,-0.031 0.01,-0.05 0,-0.02 0,-0.035 -0.01,-0.047 -0.02,-0.012 -0.04,-0.012 -0.06,-0.012 -0.01,0 -0.03,0 -0.06,0 -0.02,0 -0.04,0 -0.05,0 -0.05,0 -0.11,0.008 -0.19,0.02 -0.08,0.015 -0.14,0.019 -0.18,0.027 -0.02,0 -0.03,0 -0.07,0 -0.02,0 -0.04,0 -0.06,0 -0.01,0 -0.03,0.008 -0.04,0.023 -0.01,0.012 -0.02,0.028 -0.02,0.051 0.01,0.035 0.03,0.051 0.09,0.051 l 0.08,0 c -0.1,0.082 -0.14,0.156 -0.13,0.234 0,0.071 0.04,0.121 0.1,0.145 0.05,0.012 0.1,0.019 0.18,0.019 l 0.07,-0.007 0.07,-0.012 c 0.03,0 0.08,0.004 0.13,0.012 0.06,0 0.1,0.007 0.14,0 0.02,0 0.03,-0.008 0.05,-0.02 0.01,-0.012 0.02,-0.031 0.02,-0.051 z m -0.83,1.289 c 0,-0.007 0,-0.015 0,-0.019 -0.03,-0.055 -0.04,-0.125 -0.05,-0.215 0,-0.031 0,-0.062 0,-0.102 0,-0.039 0.01,-0.086 0.01,-0.128 l 0.29,-0.024 c -0.02,0.086 -0.03,0.149 -0.03,0.192 0.01,0.066 0.02,0.132 0.03,0.21 0.01,0.04 0.03,0.059 0.07,0.055 0.02,0 0.03,-0.012 0.04,-0.027 0.02,-0.008 0.02,-0.024 0.02,-0.043 0,-0.02 0,-0.059 -0.01,-0.102 -0.01,-0.043 -0.01,-0.082 -0.01,-0.101 -0.01,-0.032 0,-0.098 0.02,-0.2 l 0.45,-0.027 c 0.02,-0.004 0.03,-0.015 0.05,-0.023 0.01,-0.012 0.01,-0.035 0.01,-0.055 0,-0.02 -0.01,-0.031 -0.02,-0.043 -0.01,-0.012 -0.03,-0.016 -0.04,-0.012 -0.09,0.004 -0.22,0.012 -0.39,0.028 -0.18,0.019 -0.31,0.027 -0.39,0.031 -0.02,0.008 -0.05,0.008 -0.09,0.008 -0.03,0 -0.06,0.004 -0.08,0.004 -0.02,0.004 -0.03,0.007 -0.05,0.019 -0.02,0.016 -0.02,0.028 -0.02,0.047 0,0.02 0.01,0.031 0.02,0.039 -0.01,0.055 -0.01,0.106 -0.02,0.149 0,0.046 0,0.078 0.01,0.113 0,0.051 0.01,0.109 0.03,0.168 0.03,0.09 0.05,0.129 0.09,0.129 0.01,-0.004 0.03,-0.008 0.05,-0.016 0.01,-0.019 0.01,-0.035 0.01,-0.055 z m 0.43,0.664 c 0.05,-0.011 0.08,-0.027 0.08,-0.074 -0.01,-0.031 -0.03,-0.051 -0.07,-0.051 -0.01,0 -0.03,0.008 -0.05,0.008 l -0.06,0 c 0.01,-0.07 0.02,-0.125 0.05,-0.172 0.02,-0.039 0.06,-0.074 0.13,-0.101 l 0.35,-0.024 c 0.05,-0.004 0.06,-0.031 0.06,-0.074 0,-0.031 -0.02,-0.051 -0.07,-0.051 l -0.46,0.032 c -0.01,0 -0.03,0 -0.06,0.007 -0.03,0.004 -0.05,0.004 -0.07,0.004 -0.04,0.008 -0.06,0.024 -0.06,0.063 0,0.043 0.04,0.062 0.11,0.058 -0.07,0.086 -0.11,0.18 -0.09,0.282 0,0.039 0.01,0.066 0.04,0.078 0.03,0.019 0.07,0.027 0.12,0.019 0.02,0 0.04,0 0.05,-0.004 z m 0.54,0.403 c -0.01,-0.098 -0.04,-0.176 -0.09,-0.227 -0.06,-0.062 -0.14,-0.097 -0.24,-0.09 -0.11,0.008 -0.2,0.039 -0.28,0.102 -0.07,0.062 -0.11,0.152 -0.1,0.25 0,0.07 0.02,0.129 0.04,0.172 0.04,0.054 0.09,0.078 0.15,0.074 0.04,0 0.08,-0.027 0.11,-0.086 0.02,-0.019 0.04,-0.062 0.07,-0.141 l 0.09,-0.253 c 0.04,0.023 0.07,0.046 0.09,0.086 0.02,0.031 0.04,0.074 0.04,0.121 0.01,0.031 0,0.066 -0.01,0.109 -0.01,0.051 -0.03,0.09 -0.05,0.102 -0.02,0.019 -0.03,0.035 -0.03,0.05 0,0.016 0.01,0.032 0.02,0.043 0.01,0.008 0.03,0.012 0.05,0.012 0.04,-0.004 0.08,-0.047 0.11,-0.121 0.02,-0.07 0.03,-0.141 0.03,-0.203 z m -0.6,0.031 c 0,-0.059 0.01,-0.105 0.05,-0.141 0.05,-0.043 0.11,-0.066 0.19,-0.093 l -0.09,0.207 c -0.03,0.086 -0.06,0.136 -0.08,0.179 -0.04,-0.043 -0.06,-0.089 -0.07,-0.152 z m 0.68,0.898 c 0,-0.042 -0.03,-0.054 -0.07,-0.062 l -0.14,-0.008 c -0.05,0 -0.1,0 -0.14,0 -0.02,0.008 -0.04,0.008 -0.07,0.016 -0.02,0 -0.05,0 -0.06,0.004 -0.1,0 -0.14,-0.012 -0.15,-0.043 0,-0.051 0.03,-0.098 0.09,-0.149 0.05,-0.043 0.11,-0.078 0.19,-0.105 0.01,-0.004 0.04,-0.004 0.06,-0.016 0.02,-0.004 0.05,-0.004 0.07,-0.004 0.01,0 0.03,-0.004 0.05,0 0.03,0 0.05,0 0.06,0 0.02,0 0.04,-0.008 0.05,-0.019 0.01,-0.016 0.01,-0.028 0.01,-0.047 0,-0.02 -0.01,-0.039 -0.02,-0.051 -0.01,-0.012 -0.03,-0.012 -0.04,-0.012 -0.02,0 -0.04,0 -0.07,0 -0.02,0 -0.04,0 -0.06,0 -0.04,0.004 -0.1,0.012 -0.18,0.02 -0.08,0.016 -0.14,0.023 -0.19,0.023 -0.01,0 -0.03,0 -0.06,0.008 -0.03,-0.008 -0.05,0 -0.06,0 -0.02,0 -0.03,0.004 -0.04,0.024 -0.01,0.011 -0.02,0.027 -0.02,0.046 0,0.04 0.03,0.055 0.09,0.055 l 0.07,0 c -0.09,0.078 -0.13,0.152 -0.13,0.231 0.01,0.074 0.05,0.121 0.11,0.144 0.04,0.016 0.1,0.02 0.18,0.02 l 0.06,-0.008 0.07,-0.008 c 0.03,0 0.08,0.004 0.14,0.008 0.06,0.004 0.1,0.008 0.14,0.004 0.02,0 0.03,-0.008 0.04,-0.02 0.01,-0.015 0.02,-0.031 0.02,-0.051 z m 0.05,0.7 c 0,-0.039 -0.03,-0.059 -0.07,-0.059 l -0.14,-0.012 c -0.06,0 -0.1,0 -0.15,0 -0.01,0 -0.03,0.004 -0.06,0.012 -0.03,0 -0.05,0 -0.06,0 -0.1,0.012 -0.15,0 -0.15,-0.035 0,-0.047 0.03,-0.102 0.09,-0.152 0.04,-0.043 0.11,-0.079 0.18,-0.102 0.02,-0.004 0.04,-0.012 0.07,-0.012 0.02,-0.008 0.04,-0.008 0.06,-0.008 0.02,-0.003 0.04,-0.003 0.06,0 0.03,0 0.05,0 0.06,0 0.02,-0.003 0.03,-0.011 0.05,-0.023 0.01,-0.008 0.01,-0.031 0.01,-0.047 0,-0.023 -0.01,-0.035 -0.02,-0.043 -0.01,-0.011 -0.03,-0.015 -0.05,-0.011 -0.01,0 -0.03,-0.004 -0.06,0 -0.02,-0.004 -0.04,-0.004 -0.06,0 -0.04,0 -0.1,0.003 -0.18,0.019 -0.08,0.012 -0.14,0.012 -0.19,0.02 -0.02,0 -0.04,0 -0.06,0 -0.03,0 -0.05,0 -0.07,0 -0.01,0.003 -0.02,0.015 -0.04,0.023 -0.01,0.012 -0.01,0.031 -0.01,0.051 0,0.039 0.03,0.058 0.09,0.058 l 0.07,0 c -0.09,0.075 -0.13,0.153 -0.12,0.231 0,0.074 0.03,0.117 0.09,0.14 0.05,0.02 0.11,0.024 0.19,0.02 l 0.07,-0.004 0.06,-0.008 c 0.03,-0.004 0.08,0 0.14,0.004 0.06,0.004 0.1,0.012 0.14,0.008 0.02,0 0.03,-0.012 0.04,-0.023 0.01,-0.012 0.02,-0.028 0.02,-0.047 z m 0.01,0.5 c 0,-0.098 -0.04,-0.176 -0.09,-0.231 -0.05,-0.066 -0.13,-0.094 -0.23,-0.086 -0.11,0.008 -0.21,0.043 -0.28,0.102 -0.08,0.066 -0.11,0.148 -0.11,0.246 0.01,0.074 0.02,0.133 0.05,0.18 0.04,0.047 0.09,0.074 0.15,0.07 0.04,-0.004 0.08,-0.027 0.11,-0.082 0.01,-0.02 0.03,-0.07 0.06,-0.145 l 0.1,-0.254 c 0.04,0.02 0.07,0.051 0.09,0.086 0.02,0.032 0.04,0.075 0.04,0.122 0,0.031 0,0.07 -0.01,0.105 -0.01,0.055 -0.03,0.094 -0.05,0.102 -0.02,0.023 -0.03,0.039 -0.03,0.054 0,0.016 0.01,0.031 0.02,0.039 0.01,0.012 0.02,0.016 0.04,0.016 0.05,-0.004 0.09,-0.047 0.11,-0.121 0.03,-0.074 0.04,-0.141 0.03,-0.203 z m -0.59,0.023 c 0,-0.055 0.02,-0.098 0.05,-0.137 0.04,-0.035 0.1,-0.062 0.19,-0.093 l -0.09,0.211 c -0.03,0.078 -0.06,0.14 -0.09,0.175 -0.03,-0.035 -0.05,-0.086 -0.06,-0.156 z m 0.12,0.887 c 0,-0.024 -0.01,-0.043 -0.03,-0.051 0,-0.008 -0.03,-0.008 -0.06,-0.012 0,-0.039 0.01,-0.082 0.03,-0.156 0.02,-0.07 0.05,-0.105 0.09,-0.109 0.01,0.011 0.01,0.023 0.02,0.035 0.02,0.098 0.05,0.176 0.09,0.219 0.05,0.066 0.12,0.093 0.21,0.093 0.06,-0.004 0.12,-0.039 0.15,-0.105 0.02,-0.051 0.03,-0.121 0.03,-0.195 -0.01,-0.059 -0.02,-0.114 -0.04,-0.164 -0.03,-0.063 -0.07,-0.094 -0.11,-0.09 -0.02,0 -0.03,0.007 -0.05,0.027 -0.01,0.012 -0.01,0.023 -0.01,0.043 0,0.016 0.01,0.031 0.03,0.051 0.01,0.012 0.03,0.035 0.03,0.07 0.01,0.027 0.01,0.055 0.02,0.074 0,0.035 0,0.067 -0.01,0.094 -0.01,0.039 -0.03,0.066 -0.06,0.07 -0.05,0 -0.1,-0.039 -0.13,-0.121 l -0.01,-0.066 c -0.02,-0.055 -0.04,-0.094 -0.06,-0.117 -0.03,-0.035 -0.06,-0.055 -0.11,-0.051 -0.09,0.012 -0.15,0.059 -0.19,0.144 0,0.028 -0.02,0.071 -0.03,0.129 -0.01,0.055 -0.02,0.102 -0.03,0.129 -0.01,0.016 -0.01,0.035 -0.01,0.059 0,0.015 0.01,0.031 0.02,0.043 0.02,0.008 0.03,0.015 0.05,0.015 0.02,0 0.04,0 0.06,0.004 0.02,0 0.04,0.004 0.05,0.004 0.02,-0.004 0.04,-0.011 0.05,-0.023 0.01,-0.012 0.01,-0.028 0.01,-0.043 z m 0.05,0.648 c 0,-0.023 -0.01,-0.043 -0.03,-0.05 -0.01,-0.004 -0.03,-0.008 -0.07,-0.008 0.01,-0.035 0.02,-0.086 0.04,-0.16 0.01,-0.067 0.05,-0.11 0.09,-0.11 0,0.012 0.01,0.024 0.01,0.035 0.03,0.102 0.06,0.176 0.1,0.223 0.04,0.062 0.11,0.098 0.2,0.09 0.07,-0.004 0.12,-0.039 0.16,-0.102 0.02,-0.054 0.03,-0.121 0.02,-0.195 0,-0.059 -0.01,-0.113 -0.04,-0.16 -0.02,-0.067 -0.06,-0.098 -0.11,-0.098 -0.02,0.004 -0.03,0.012 -0.04,0.024 -0.01,0.015 -0.02,0.035 -0.02,0.05 0,0.016 0.02,0.028 0.04,0.051 0.01,0.008 0.02,0.035 0.03,0.067 0,0.027 0.01,0.054 0.01,0.074 0,0.035 0,0.066 -0.01,0.093 -0.01,0.043 -0.02,0.067 -0.05,0.067 -0.06,0.008 -0.1,-0.035 -0.13,-0.113 l -0.02,-0.067 c -0.01,-0.062 -0.03,-0.101 -0.06,-0.121 -0.02,-0.031 -0.06,-0.051 -0.11,-0.047 -0.09,0.004 -0.15,0.055 -0.18,0.145 -0.01,0.023 -0.02,0.066 -0.03,0.129 -0.02,0.054 -0.02,0.101 -0.04,0.125 -0.01,0.019 -0.01,0.039 -0.01,0.058 0,0.02 0.01,0.032 0.03,0.043 0.01,0.008 0.03,0.02 0.04,0.016 0.02,0 0.04,0.004 0.06,0.004 0.03,0.004 0.04,0.011 0.06,0.004 0.01,0 0.03,-0.008 0.04,-0.02 0.01,-0.015 0.02,-0.031 0.02,-0.047 z m 0.57,0.418 c 0,-0.07 -0.03,-0.133 -0.09,-0.187 -0.06,-0.055 -0.15,-0.074 -0.25,-0.074 -0.1,0.003 -0.18,0.035 -0.25,0.093 -0.09,0.063 -0.13,0.157 -0.12,0.262 0.01,0.09 0.05,0.152 0.13,0.191 0.06,0.032 0.15,0.043 0.24,0.036 0.09,-0.008 0.18,-0.036 0.24,-0.098 0.07,-0.059 0.11,-0.137 0.1,-0.223 z m -0.58,0.078 c 0,-0.062 0.02,-0.117 0.08,-0.156 0.05,-0.031 0.1,-0.055 0.17,-0.055 0.06,-0.003 0.11,0.008 0.14,0.043 0.04,0.024 0.06,0.059 0.06,0.098 0,0.051 -0.02,0.082 -0.04,0.125 -0.04,0.031 -0.09,0.055 -0.15,0.063 -0.17,0.019 -0.25,-0.016 -0.26,-0.118 z m 0.66,0.879 c -0.01,-0.043 -0.03,-0.062 -0.07,-0.062 l -0.14,-0.012 c -0.06,0 -0.11,0 -0.15,0.008 -0.01,0 -0.04,0.004 -0.06,0.004 -0.03,0.008 -0.05,0.008 -0.06,0.008 -0.1,0.003 -0.15,-0.008 -0.15,-0.039 0,-0.051 0.03,-0.102 0.08,-0.153 0.05,-0.043 0.12,-0.078 0.19,-0.105 0.02,0 0.04,-0.004 0.06,-0.008 0.03,-0.012 0.05,-0.012 0.07,-0.012 0.02,0 0.04,0 0.06,0 0.02,0 0.04,0 0.06,0 0.02,0 0.03,-0.004 0.04,-0.019 0.02,-0.012 0.02,-0.028 0.02,-0.051 0,-0.016 -0.01,-0.031 -0.03,-0.043 -0.01,-0.012 -0.02,-0.012 -0.04,-0.012 -0.01,0 -0.03,0 -0.06,0 -0.03,0 -0.05,0 -0.06,0 -0.04,0 -0.11,0.012 -0.18,0.02 -0.09,0.011 -0.15,0.019 -0.19,0.023 -0.02,0 -0.04,0 -0.06,0 -0.03,0 -0.05,0 -0.07,0 -0.01,0.008 -0.02,0.012 -0.04,0.024 -0.01,0.015 -0.02,0.027 -0.01,0.046 0,0.043 0.03,0.063 0.09,0.063 l 0.07,0 c -0.09,0.074 -0.13,0.152 -0.13,0.23 0.01,0.075 0.04,0.118 0.1,0.141 0.05,0.016 0.11,0.024 0.19,0.024 l 0.07,-0.008 0.06,-0.008 c 0.03,-0.008 0.08,0 0.13,0.004 0.06,0.004 0.11,0.012 0.14,0.012 0.02,0 0.04,-0.016 0.05,-0.028 0.01,-0.012 0.02,-0.027 0.02,-0.047 z m 0.2,0.278 c -0.01,-0.012 -0.02,-0.028 -0.03,-0.039 -0.01,-0.012 -0.02,-0.012 -0.04,-0.012 -0.01,0 -0.05,0.012 -0.11,0.051 -0.05,0.023 -0.09,0.047 -0.11,0.062 -0.02,0.012 -0.03,0.024 -0.03,0.043 0,0.016 0.01,0.031 0.02,0.039 0.01,0.008 0.03,0.012 0.04,0.012 0.01,0 0.08,-0.031 0.23,-0.106 0.01,-0.007 0.03,-0.023 0.03,-0.05 z m -0.16,1.062 -0.01,-0.129 -0.01,-0.133 c 0,-0.031 0,-0.05 -0.01,-0.066 0,-0.02 -0.03,-0.027 -0.05,-0.027 -0.04,0 -0.06,0.039 -0.06,0.105 l 0,0.031 0.01,0.028 c -0.02,0 -0.05,0 -0.09,0 -0.05,0 -0.08,0 -0.1,0 -0.05,0.004 -0.13,0.015 -0.25,0.035 -0.11,0.015 -0.2,0.027 -0.25,0.027 0.04,-0.058 0.06,-0.097 0.06,-0.117 0,-0.012 -0.01,-0.027 -0.02,-0.039 -0.02,-0.012 -0.03,-0.016 -0.05,-0.016 -0.02,0 -0.04,0.016 -0.07,0.055 -0.01,0.031 -0.04,0.063 -0.07,0.109 -0.04,0.039 -0.05,0.079 -0.05,0.118 0,0.023 0.02,0.035 0.05,0.035 0.01,0 0.03,0 0.04,-0.008 0.02,-0.004 0.04,-0.004 0.05,-0.004 0.01,0 0.04,0 0.07,0 0.03,0 0.05,-0.004 0.06,-0.004 0.05,-0.008 0.13,-0.015 0.22,-0.035 0.1,-0.012 0.17,-0.023 0.22,-0.027 0.03,0 0.06,0 0.09,0.004 0.04,0 0.07,-0.004 0.09,-0.004 l 0,0.066 c 0,0.02 0.01,0.035 0.03,0.043 0.01,0.012 0.02,0.02 0.04,0.02 0.02,0 0.04,-0.012 0.04,-0.024 0.02,-0.012 0.02,-0.027 0.02,-0.043 z m -0.03,0.66 c 0.01,-0.035 0.04,-0.09 0.07,-0.164 0.03,-0.078 0.05,-0.133 0.05,-0.16 0,-0.019 -0.02,-0.031 -0.02,-0.043 -0.03,-0.012 -0.03,-0.019 -0.05,-0.019 -0.03,0 -0.05,0.019 -0.06,0.05 l -0.03,0.11 c -0.02,0.07 -0.05,0.125 -0.08,0.168 -0.04,0.043 -0.08,0.082 -0.15,0.113 l -0.05,0.031 c 0.01,-0.019 0.02,-0.051 0.03,-0.09 0.01,-0.043 0.01,-0.07 0.01,-0.097 -0.01,-0.078 -0.03,-0.153 -0.08,-0.207 -0.06,-0.071 -0.14,-0.098 -0.25,-0.094 -0.12,0.008 -0.2,0.051 -0.27,0.129 -0.04,0.07 -0.06,0.156 -0.05,0.258 0,0.082 0.04,0.144 0.12,0.211 0.07,0.062 0.15,0.089 0.25,0.082 0.11,-0.008 0.21,-0.036 0.32,-0.082 0.1,-0.055 0.18,-0.118 0.24,-0.196 z m -0.82,-0.039 c -0.01,-0.07 0.01,-0.129 0.05,-0.172 0.03,-0.035 0.09,-0.062 0.16,-0.066 0.07,-0.008 0.12,0.012 0.16,0.055 0.03,0.039 0.04,0.089 0.05,0.148 0,0.039 -0.01,0.074 -0.02,0.109 -0.01,0.02 -0.03,0.051 -0.06,0.102 -0.04,0.008 -0.06,0.012 -0.09,0.016 -0.06,0.004 -0.11,-0.016 -0.16,-0.059 -0.06,-0.039 -0.09,-0.09 -0.09,-0.133 z m 0.87,0.852 c 0.02,-0.031 0.05,-0.09 0.08,-0.156 0.03,-0.082 0.05,-0.137 0.04,-0.168 0,-0.02 -0.01,-0.032 -0.01,-0.043 -0.02,-0.008 -0.04,-0.016 -0.06,-0.016 -0.03,0 -0.04,0.019 -0.05,0.051 l -0.04,0.109 c -0.01,0.067 -0.05,0.129 -0.07,0.168 -0.04,0.043 -0.09,0.082 -0.15,0.117 l -0.06,0.032 c 0.02,-0.024 0.03,-0.055 0.04,-0.098 0.01,-0.039 0.01,-0.067 0.01,-0.094 0,-0.078 -0.03,-0.144 -0.09,-0.211 -0.05,-0.066 -0.13,-0.097 -0.23,-0.086 -0.13,0.008 -0.22,0.047 -0.27,0.125 -0.05,0.071 -0.07,0.156 -0.07,0.262 0.02,0.074 0.05,0.144 0.12,0.211 0.07,0.055 0.15,0.086 0.25,0.078 0.11,-0.012 0.22,-0.035 0.32,-0.078 0.11,-0.059 0.19,-0.125 0.24,-0.203 z m -0.81,-0.035 c -0.01,-0.071 0.01,-0.133 0.04,-0.172 0.04,-0.035 0.09,-0.063 0.17,-0.067 0.06,-0.004 0.12,0.012 0.15,0.055 0.03,0.043 0.05,0.086 0.05,0.148 0.01,0.036 0,0.071 -0.02,0.11 0,0.019 -0.02,0.051 -0.05,0.101 -0.04,0.004 -0.07,0.012 -0.1,0.012 -0.05,0.004 -0.1,-0.016 -0.16,-0.058 -0.05,-0.04 -0.08,-0.082 -0.08,-0.129 z m 0.87,0.851 c 0.03,-0.035 0.05,-0.082 0.07,-0.164 0.04,-0.074 0.05,-0.129 0.05,-0.16 0,-0.02 -0.01,-0.031 -0.02,-0.043 -0.02,-0.012 -0.03,-0.02 -0.05,-0.016 -0.02,0 -0.04,0.02 -0.06,0.051 l -0.03,0.106 c -0.02,0.074 -0.05,0.129 -0.08,0.172 -0.03,0.039 -0.08,0.078 -0.15,0.117 l -0.04,0.027 c 0.01,-0.023 0.02,-0.055 0.02,-0.09 0.02,-0.043 0.02,-0.07 0.02,-0.097 -0.01,-0.079 -0.03,-0.153 -0.08,-0.211 -0.07,-0.067 -0.15,-0.098 -0.25,-0.09 -0.12,0.008 -0.21,0.054 -0.27,0.129 -0.05,0.07 -0.06,0.156 -0.06,0.257 0.01,0.079 0.05,0.145 0.11,0.208 0.08,0.066 0.17,0.089 0.26,0.085 0.11,-0.003 0.21,-0.035 0.32,-0.085 0.11,-0.051 0.19,-0.114 0.24,-0.196 z m -0.82,-0.039 c 0,-0.07 0.01,-0.129 0.04,-0.168 0.04,-0.035 0.1,-0.062 0.18,-0.066 0.06,-0.008 0.11,0.015 0.15,0.058 0.03,0.035 0.05,0.086 0.05,0.145 0,0.035 0,0.07 -0.02,0.109 -0.01,0.02 -0.03,0.051 -0.06,0.102 -0.04,0.008 -0.06,0.012 -0.09,0.012 -0.05,0.007 -0.11,-0.012 -0.16,-0.059 -0.05,-0.035 -0.09,-0.086 -0.09,-0.133"
         inkscape:connector-curvature="0"
         id="path14"
         style="fill:#1daeea;fill-opacity:1;fill-rule:evenodd;stroke:none" /></g></g></svg>